<?xml version="1.0" standalone="no"?>
<!DOCTYPE svg PUBLIC "-//W3C//DTD SVG 20010904//EN"
 "http://www.w3.org/TR/2001/REC-SVG-20010904/DTD/svg10.dtd">
<svg version="1.0" xmlns="http://www.w3.org/2000/svg"
 width="214.000000pt" height="214.000000pt" viewBox="0 0 214.000000 214.000000"
 preserveAspectRatio="xMidYMid meet">
<metadata>
Created by potrace 1.14, written by Peter Selinger 2001-2017
</metadata>
<g transform="translate(0.000000,214.000000) scale(0.100000,-0.100000)"
fill="#000000" stroke="none">
<path d="M0 1070 l0 -1070 130 0 130 0 0 44 c0 25 -4 48 -10 51 -16 10 -12 29
13 66 12 19 31 57 42 84 26 70 74 141 133 199 45 44 50 53 45 83 -4 21 -2 33
6 33 6 0 11 -9 11 -20 0 -22 34 -28 46 -9 4 6 20 8 39 5 26 -5 37 -1 60 21 36
36 44 62 33 95 -12 32 -28 28 -28 -7 0 -18 -7 -26 -25 -31 -26 -6 -121 2 -138
13 -5 3 -7 1 -4 -4 4 -6 -7 -13 -25 -17 -56 -11 -62 29 -23 169 45 164 49 175
65 165 22 -13 30 -2 30 40 0 53 -17 89 -57 125 l-34 31 12 89 c18 138 29 193
43 204 14 12 56 3 56 -12 0 -6 20 -7 55 -3 53 6 55 6 99 -36 74 -71 90 -86
111 -108 37 -38 56 -55 65 -55 4 0 23 -13 40 -29 29 -25 32 -33 27 -68 -5 -38
-3 -43 46 -90 28 -27 68 -59 89 -70 21 -12 38 -25 38 -30 0 -4 6 -8 13 -8 25
-1 46 -47 48 -107 1 -32 8 -71 16 -86 7 -15 11 -33 7 -39 -4 -6 4 -19 17 -30
l24 -19 -35 7 c-47 9 -52 12 -45 35 11 34 -11 20 -24 -16 -7 -19 -16 -33 -20
-31 -4 3 -22 -8 -40 -24 -18 -17 -36 -30 -41 -30 -5 0 -23 -13 -41 -29 -27
-25 -35 -28 -55 -19 -12 6 -31 7 -41 3 -10 -4 -38 -9 -63 -12 -24 -2 -46 -6
-48 -8 -2 -2 10 -17 27 -33 17 -16 31 -35 31 -42 0 -7 7 -10 15 -6 9 3 15 0
15 -8 0 -10 7 -12 22 -8 22 5 22 5 5 -19 -9 -13 -22 -34 -27 -46 -5 -13 -17
-23 -25 -23 -9 0 -15 -7 -13 -16 4 -23 -51 -28 -74 -7 -11 10 -26 13 -45 9
l-28 -6 24 20 c13 11 22 22 19 25 -2 2 -33 -5 -69 -15 -37 -12 -76 -18 -92
-14 l-29 6 16 -30 c19 -37 27 -40 145 -47 63 -4 98 -2 107 6 11 9 14 8 14 -5
0 -9 -5 -16 -10 -16 -6 0 -8 -10 -4 -24 4 -19 1 -26 -15 -31 -11 -3 -25 -4
-29 -1 -5 3 -18 -1 -28 -9 -22 -17 -129 -20 -139 -5 -12 20 -26 10 -15 -10 8
-15 8 -20 -2 -20 -7 0 -2 -7 10 -16 28 -19 142 -35 271 -37 71 -2 96 -6 99
-16 3 -10 -2 -12 -22 -7 -32 8 -35 -10 -4 -20 13 -4 25 -6 28 -5 2 1 7 -7 12
-18 12 -33 40 -27 33 7 l-5 27 11 -27 c11 -28 12 -28 103 -28 87 0 123 10 146
40 3 4 25 18 50 32 158 89 199 115 230 145 19 19 54 44 78 55 28 14 58 41 85
77 23 31 64 83 90 116 27 33 55 76 64 95 9 19 24 46 33 60 22 32 23 114 3 159
-9 20 -13 47 -10 68 3 19 1 46 -5 61 -10 26 -17 62 -12 62 8 0 34 -67 34 -87
0 -13 11 -39 24 -56 32 -44 46 -90 46 -153 0 -52 2 -55 40 -79 22 -14 42 -25
45 -25 11 0 4 50 -9 62 -9 9 -11 21 -5 40 5 20 3 34 -12 52 -12 15 -15 27 -9
31 23 14 8 85 -18 85 -12 0 -13 3 -4 12 14 14 16 32 3 24 -14 -9 -23 44 -11
59 6 8 10 31 8 52 -2 30 -7 37 -20 35 -14 -2 -18 4 -18 27 0 16 6 31 12 33 9
3 7 10 -6 23 -18 18 -18 27 0 108 4 15 3 27 -2 26 -37 -6 -42 1 -41 55 1 32
-4 61 -12 70 -8 9 -11 19 -7 23 3 3 6 1 6 -5 0 -7 7 -12 16 -12 13 0 15 8 9
53 -8 58 -22 90 -35 82 -4 -3 -6 -15 -3 -28 4 -18 2 -16 -11 7 -9 15 -16 34
-16 42 0 18 -35 79 -59 103 -11 11 -18 27 -15 35 3 8 1 17 -5 21 -6 3 -11 11
-11 17 0 7 6 6 15 -2 12 -10 15 -10 15 2 0 8 -5 19 -12 26 -8 8 -5 14 15 21
30 12 38 55 12 65 -8 3 -15 2 -15 -2 0 -4 -11 -8 -24 -8 -19 -1 -25 4 -28 28
-3 19 0 32 9 35 22 9 15 23 -12 23 -32 0 -48 47 -21 62 14 8 15 13 5 24 -8 10
-8 14 0 14 6 0 11 5 11 11 0 7 -10 9 -24 5 -18 -4 -28 -1 -35 11 -8 13 -13 15
-19 6 -10 -15 -28 -4 -35 22 -3 13 -5 8 -7 -15 l-1 -35 -15 40 c-14 39 -14 41
11 60 14 12 25 26 25 33 0 9 -186 12 -830 12 l-830 0 0 -1070z m1231 987 c-10
-9 -11 -8 -5 6 3 10 9 15 12 12 3 -3 0 -11 -7 -18z m26 1 c-3 -8 -6 -5 -6 6
-1 11 2 17 5 13 3 -3 4 -12 1 -19z m83 -9 c0 -6 -4 -7 -10 -4 -5 3 -10 11 -10
16 0 6 5 7 10 4 6 -3 10 -11 10 -16z m-679 -31 c23 3 23 2 -5 -12 -15 -9 -30
-16 -32 -16 -2 0 -4 17 -3 38 1 32 2 34 8 12 5 -19 13 -24 32 -22z m72 -5 c-7
-3 -13 -12 -13 -20 0 -9 -3 -14 -6 -10 -4 3 -3 18 0 33 6 21 10 24 19 14 9
-10 9 -14 0 -17z m312 -3 c-3 -6 4 -10 17 -10 18 0 20 -2 8 -10 -9 -5 -19 -5
-27 2 -12 9 -9 28 3 28 3 0 2 -4 -1 -10z m310 0 c3 -5 -1 -10 -9 -10 -9 0 -16
5 -16 10 0 6 4 10 9 10 6 0 13 -4 16 -10z m-690 -40 c3 -6 -1 -7 -9 -4 -18 7
-21 14 -7 14 6 0 13 -4 16 -10z m1035 -96 c0 -31 -23 -28 -28 4 -2 15 2 22 12
22 11 0 16 -9 16 -26z m-137 -39 c-3 -9 -8 -14 -10 -11 -3 3 -2 9 2 15 9 16
15 13 8 -4z m37 -33 c0 -7 -4 -10 -10 -7 -5 3 -10 16 -10 28 0 18 2 19 10 7 5
-8 10 -21 10 -28z m-40 -2 c5 8 10 1 15 -19 4 -18 4 -35 1 -38 -3 -4 -6 3 -6
14 0 12 -7 23 -15 27 -8 3 -15 11 -14 18 0 10 2 10 6 -1 4 -10 7 -11 13 -1z
m120 -10 c6 -11 9 -20 7 -20 -2 0 -12 9 -22 20 -10 11 -13 20 -7 20 6 0 16 -9
22 -20z m-3 -82 c-3 -7 -5 -2 -5 12 0 14 2 19 5 13 2 -7 2 -19 0 -25z m-20
-20 c-3 -8 -6 -5 -6 6 -1 11 2 17 5 13 3 -3 4 -12 1 -19z m113 -32 c0 -7 9
-25 20 -39 24 -31 25 -38 3 -30 -12 5 -14 3 -8 -7 5 -8 4 -11 -2 -7 -6 4 -13
21 -15 39 -3 18 -9 42 -13 52 -6 14 -5 17 3 12 7 -4 12 -13 12 -20z m-225 -76
c3 -5 2 -10 -4 -10 -5 0 -13 5 -16 10 -3 6 -2 10 4 10 5 0 13 -4 16 -10z m65
-71 c0 -6 -4 -7 -10 -4 -5 3 -10 11 -10 16 0 6 5 7 10 4 6 -3 10 -11 10 -16z
m45 -37 c-6 -7 -35 18 -35 31 0 5 9 2 20 -8 11 -10 18 -20 15 -23z m-235 -12
c0 -4 -11 -7 -25 -7 -26 0 -34 12 -12 20 15 5 37 -2 37 -13z m520 -335 c0 -9
-6 -12 -15 -9 -8 4 -12 10 -9 15 8 14 24 10 24 -6z m-1465 -93 c-9 -9 -35 8
-35 24 0 16 2 16 20 -1 11 -10 18 -20 15 -23z m1422 -24 c1 -26 -1 -29 -7 -13
-6 17 -3 45 5 45 1 0 2 -15 2 -32z m-197 -139 c0 -44 -55 -206 -85 -249 -21
-30 -36 -41 -71 -48 -49 -11 -88 -6 -104 13 -13 16 -1 75 15 75 8 0 11 8 8 20
-4 13 0 20 10 20 8 0 20 6 27 14 6 8 26 16 43 18 22 2 33 9 35 22 3 13 0 17
-11 13 -8 -3 -22 2 -31 12 -20 22 -21 38 -1 21 8 -7 15 -9 15 -5 0 4 7 2 15
-5 23 -19 20 26 -5 57 -11 14 -17 29 -14 34 9 15 34 10 34 -6 0 -8 6 -15 13
-15 9 0 8 -3 -2 -9 -9 -6 -10 -11 -2 -15 17 -11 14 -101 -4 -116 -8 -7 -15 -9
-15 -4 0 5 -5 1 -11 -9 -11 -19 -4 -37 15 -37 17 0 56 55 56 80 0 11 4 20 10
20 5 0 18 17 29 39 20 38 20 38 -1 80 -11 23 -25 41 -32 40 -29 -4 -38 4 -11
11 24 6 34 3 53 -17 12 -14 22 -37 22 -54z m-324 -187 c-8 -8 -12 -1 -20 33
l-6 30 16 -28 c8 -16 13 -31 10 -35z m-1196 -92 c0 -5 -2 -10 -4 -10 -3 0 -8
5 -11 10 -3 6 -1 10 4 10 6 0 11 -4 11 -10z m18 -68 c-3 -14 -6 -14 -16 6 -7
12 -10 27 -6 33 9 15 27 -16 22 -39z m1302 -12 c0 -11 6 -20 14 -20 20 0 28
-14 20 -35 -4 -10 -16 -15 -32 -13 -34 4 -46 26 -33 61 12 32 31 36 31 7z
m-410 -50 c0 -5 -9 -10 -19 -10 -14 0 -18 -5 -14 -20 4 -16 0 -20 -22 -20
l-28 0 19 23 c32 37 64 51 64 27z m-105 -80 c-3 -5 -14 -10 -23 -9 -14 0 -13
2 3 9 27 11 27 11 20 0z"/>
<path d="M1790 2085 c0 -22 38 -90 46 -82 8 8 -6 51 -26 77 -18 23 -20 23 -20
5z"/>
<path d="M1786 2005 c4 -8 10 -15 15 -15 4 0 6 7 3 15 -4 8 -10 15 -15 15 -4
0 -6 -7 -3 -15z"/>
<path d="M1863 1834 c-3 -8 -1 -20 6 -27 8 -8 11 -4 11 16 0 30 -7 35 -17 11z"/>
<path d="M1845 1633 c6 -4 15 -17 21 -27 14 -26 34 -32 34 -11 0 9 5 13 10 10
6 -3 10 -2 10 3 0 6 -11 13 -24 16 -13 3 -32 9 -43 12 -10 3 -14 2 -8 -3z"/>
<path d="M1891 1514 c0 -11 3 -14 6 -6 3 7 2 16 -1 19 -3 4 -6 -2 -5 -13z"/>
<path d="M575 1051 c-11 -19 35 -124 53 -118 4 1 29 -15 56 -36 27 -20 44 -37
38 -37 -6 0 -9 -6 -6 -13 3 -9 22 -12 69 -9 41 3 70 0 79 -7 10 -8 16 -9 21
-1 3 5 23 10 43 10 50 0 68 12 49 32 -8 7 -18 25 -22 38 -10 31 -41 55 -86 69
-20 6 -42 18 -49 26 -7 8 -21 15 -32 15 -11 0 -46 6 -77 14 -80 20 -130 26
-136 17z m167 -113 c-11 -11 -32 -3 -32 12 0 4 9 6 21 3 13 -4 17 -9 11 -15z
m105 -24 c-3 -3 -12 -4 -19 -1 -8 3 -5 6 6 6 11 1 17 -2 13 -5z m-37 -38 c0
-3 -4 -8 -10 -11 -5 -3 -10 -1 -10 4 0 6 5 11 10 11 6 0 10 -2 10 -4z"/>
<path d="M740 812 c0 -2 15 -9 32 -17 22 -9 39 -10 50 -4 30 16 20 24 -32 24
-28 0 -50 -1 -50 -3z"/>
<path d="M521 481 c-7 -5 -10 -14 -6 -21 5 -8 2 -10 -11 -6 -11 3 -25 2 -32
-3 -21 -13 15 -23 38 -11 25 13 30 13 30 -5 0 -34 167 -78 209 -56 13 8 21 8
21 2 0 -6 10 -15 21 -22 17 -9 20 -8 13 2 -4 7 -7 33 -5 56 2 41 1 44 -33 58
-19 8 -45 15 -57 15 -21 0 -22 -1 -4 -20 18 -20 17 -20 -17 -20 -31 0 -92 15
-138 34 -8 3 -21 2 -29 -3z m89 -51 c0 -5 -4 -10 -10 -10 -5 0 -10 5 -10 10 0
6 5 10 10 10 6 0 10 -4 10 -10z"/>
<path d="M450 389 c-26 -9 -58 -49 -41 -49 6 0 15 8 20 18 6 9 11 12 11 5 0
-8 13 -12 34 -11 29 1 33 5 32 25 -1 25 -14 28 -56 12z"/>
<path d="M2042 272 c57 -77 92 -121 96 -118 5 5 -46 83 -74 113 -25 27 -41 31
-22 5z"/>
<path d="M1972 230 l-23 -19 65 -68 c36 -37 66 -71 66 -75 0 -5 11 -8 24 -8
19 0 23 4 19 20 -3 11 0 20 6 20 6 0 1 11 -11 25 -13 15 -25 21 -32 16 -6 -5
-20 -5 -31 0 -18 7 -18 8 5 9 22 0 23 2 7 11 -9 6 -15 15 -11 20 6 11 -21 45
-46 59 -10 5 -23 1 -38 -10z"/>
<path d="M536 150 c-10 -25 -25 -53 -34 -64 -16 -17 -16 -18 2 -15 10 2 22 11
26 19 26 52 32 69 28 86 -2 13 -9 6 -22 -26z"/>
<path d="M1880 171 c-24 -19 -24 -20 -5 -43 61 -73 121 -128 141 -128 43 0 55
10 42 33 -17 34 -130 157 -142 157 -6 0 -22 -9 -36 -19z"/>
<path d="M1660 133 c0 -7 -3 -12 -7 -11 -5 1 -19 -4 -33 -12 -14 -8 -34 -15
-45 -17 -10 -2 -22 -8 -25 -13 -9 -15 -59 -30 -77 -23 -10 4 -14 2 -10 -4 4
-6 -3 -11 -16 -11 -29 0 -106 -34 -90 -39 6 -2 30 5 52 16 33 15 41 16 41 5 0
-12 5 -11 26 3 27 17 27 17 15 -5 -11 -21 -10 -22 22 -22 20 0 46 9 63 22 24
19 27 20 21 5 -6 -16 -4 -16 21 3 15 11 37 29 50 38 22 16 23 19 8 47 -9 17
-16 24 -16 18z"/>
<path d="M1786 102 l-39 -26 44 -38 c39 -34 50 -38 97 -38 51 0 52 0 40 22
-17 30 -69 87 -88 98 -10 5 -29 -2 -54 -18z"/>
<path d="M1685 25 l-30 -25 70 0 70 1 -28 24 c-35 31 -44 31 -82 0z"/>
<path d="M540 29 c0 -9 57 -29 83 -29 15 0 17 3 8 14 -12 14 -91 27 -91 15z"/>
</g>
</svg>
